<svg width="133" height="48" viewBox="0 0 133 48" fill="none" xmlns="http://www.w3.org/2000/svg">
<g id="Group">
<path id="Vector" d="M82.1075 33.2675C81.3915 33.1908 80.6499 33.1652 79.934 33.114C79.218 33.0885 78.502 33.0373 77.786 32.9606C77.07 33.0373 76.3285 33.0629 75.6381 33.114C74.9221 33.1396 74.2061 33.1908 73.4646 33.2675H73.3879C72.6463 33.2675 71.8536 33.2419 71.8536 32.5259C71.8536 31.8099 72.2628 31.6054 72.9532 31.3241C73.7458 30.9661 73.8226 30.4291 73.8226 28.3835V16.6721C73.8226 16.2885 73.797 15.9561 73.7459 15.8283C73.618 15.9305 73.3879 16.3908 73.1577 16.8511L73.0043 17.1579L65.8189 32.1424C65.4609 32.8839 65.0518 33.2675 64.6171 33.2675C64.1824 33.2675 63.8756 32.8072 63.6966 32.4492V32.3981L56.6391 16.8767C56.2811 16.0328 56.1276 15.9561 56.0509 15.9561C55.9742 15.9561 55.9231 15.9561 55.9231 16.6465V26.3122C55.9231 28.3323 56.2811 30.3524 58.8637 31.3241C59.4263 31.5287 59.9377 31.8355 59.9377 32.5259C59.9377 33.2163 59.145 33.2675 58.8126 33.2675C58.1733 33.2675 57.534 33.1908 56.8948 33.114C56.2811 33.0373 55.6418 32.9606 55.0025 32.9606C54.3633 32.9606 53.7496 33.0373 53.1359 33.114C52.5222 33.1908 51.8573 33.2675 51.2181 33.2675C50.5788 33.2675 50.2975 33.2675 50.2975 32.5259C50.2975 31.7844 50.7322 31.6565 51.2436 31.4008L51.3715 31.3241C53.1103 30.378 53.6473 29.4574 53.6473 27.3606V13.5525C53.6473 12.1205 53.2126 10.2538 51.9596 9.64015C51.7551 9.53787 51.5505 9.43559 51.3971 9.35888C50.5788 8.97532 50.1697 8.79632 50.1697 8.2082C50.1697 7.62007 50.3487 7.46664 50.8089 7.46664C51.2692 7.46664 51.9085 7.49222 52.4455 7.54336C52.9825 7.56893 53.5194 7.62007 54.0564 7.62007C54.5934 7.62007 55.1304 7.5945 55.6674 7.54336C56.2044 7.51779 56.7669 7.46664 57.3039 7.46664C57.8409 7.46664 58.3779 7.56893 58.6847 8.18262L65.7422 23.0648C65.9468 23.4739 66.1002 23.8063 66.2281 24.1132C66.4582 24.599 66.6116 24.957 66.7139 25.0848C66.8162 24.9826 67.0208 24.599 67.1742 24.2922C67.2509 24.1387 67.3532 23.9597 67.4555 23.7807L75.3568 8.43833C75.7404 7.67121 75.9194 7.51779 76.3285 7.51779C76.7376 7.51779 77.428 7.54336 77.965 7.5945C78.502 7.62007 79.039 7.67121 79.576 7.67121C80.1129 7.67121 80.6499 7.64564 81.1869 7.5945C81.7239 7.56893 82.2865 7.51779 82.8234 7.51779C83.3604 7.51779 83.0536 7.56893 83.1303 7.64564C83.2581 7.7735 83.2837 7.97806 83.2581 8.28491C83.2581 8.92418 82.6444 9.15431 81.6216 9.5123L81.4426 9.58901C80.2408 9.99814 79.6782 10.2794 79.6782 12.4018V25.3917C79.6782 28.3835 79.8061 30.2757 82.5677 31.3497C83.3093 31.6309 83.744 31.8355 83.744 32.5515C83.744 33.293 82.9002 33.293 82.133 33.293" fill="white"/>
<path id="Vector_2" d="M96.2737 33.4976C94.6371 33.4976 93.1029 33.114 91.6454 32.756C91.0061 32.6026 90.3157 32.4236 89.6508 32.2958C89.5997 32.2958 89.5741 32.2958 89.523 32.2958C89.1394 32.2191 88.5257 32.1168 88.3467 31.5031L87.0682 26.4657C87.0682 26.3634 87.0171 26.2611 86.9915 26.1332C86.9148 25.852 86.8125 25.5195 86.8125 25.2383C86.8125 24.957 86.8892 24.42 87.8609 24.42C88.8326 24.42 88.9349 25.1871 89.1394 25.7497C89.1906 25.8775 89.2417 26.0054 89.2929 26.1077C90.4691 28.6392 92.975 31.3241 96.4015 31.3241C99.828 31.3241 100.723 29.7131 100.723 27.4118C100.723 25.1104 98.2937 24.1899 95.4554 23.1926C91.7988 21.8885 87.2472 20.2776 87.2472 14.5241C87.2472 8.77074 90.6737 7.15979 94.8673 7.15979C99.0609 7.15979 98.3193 7.72235 99.3933 8.13148C100.058 8.38718 100.595 8.56618 101.004 8.56618C101.413 8.56618 101.465 8.43832 101.72 8.31047C102.027 8.18262 102.308 8.05476 102.513 8.05476C103.28 8.05476 103.382 8.56618 103.382 9.02645C103.331 10.484 103.612 12.5552 103.766 13.8082C103.843 14.3707 103.868 14.652 103.868 14.7799C103.868 15.4447 103.485 15.8538 102.845 15.8538C102.206 15.8538 101.797 15.189 101.541 14.3196L101.49 14.1662C100.672 11.6091 97.68 9.3333 95.0718 9.3333C92.4636 9.3333 91.2107 10.3817 91.2107 12.3762C91.2107 14.3707 93.691 15.7004 96.5294 16.6721C100.339 17.9762 104.661 19.4337 104.661 25.2127C104.661 29.1761 101.439 33.472 96.1969 33.472" fill="white"/>
<path id="Vector_3" d="M121.077 33.4976C114.915 33.4976 108.522 28.8693 108.522 21.147C108.522 13.4246 109.954 12.7598 112.69 10.305C114.966 8.25933 118.111 7.15979 121.537 7.15979C124.964 7.15979 126.421 8.02919 127.905 8.59175C128.544 8.84746 129.106 9.05202 129.388 9.05202C129.669 9.05202 129.72 8.94974 129.873 8.66846C130.052 8.36161 130.283 7.92691 130.947 7.92691C131.612 7.92691 131.612 8.15705 131.689 8.56618L132.226 13.5013C132.252 13.7826 132.303 14.0894 132.354 14.3963C132.405 14.7799 132.482 15.1634 132.482 15.4191C132.482 15.9817 132.2 16.5698 131.663 16.5698C131.126 16.5698 130.743 15.8538 130.513 15.4191C130.513 15.368 130.462 15.3424 130.436 15.2913C128.288 11.4557 125.424 9.3333 122.356 9.3333C117.293 9.3333 114.838 12.6575 114.838 19.5104C114.838 26.3634 118.418 30.02 122.816 30.02C127.214 30.02 128.135 28.7926 130.231 26.6447C130.308 26.5679 130.385 26.4912 130.462 26.3889C130.871 25.9542 131.357 25.3917 131.945 25.3917C132.533 25.3917 132.61 25.4684 132.61 26.1844C132.61 27.4118 128.723 33.472 121.052 33.472" fill="white"/>
<path id="Vector_4" d="M18.1552 33.5487C18.3598 33.651 18.5899 33.5999 18.7177 33.3953C18.82 33.1907 18.7689 32.9606 18.5643 32.8328C18.3598 32.7305 18.1296 32.7816 18.0018 32.9862C17.8995 33.1908 17.9506 33.4209 18.1552 33.5487ZM35.62 27.0282L47.5359 23.8575L35.62 20.6611L40.4784 14.1662L32.4492 15.1378L33.4209 7.08308L26.9515 11.9415L23.7807 0L20.61 11.9415L14.1406 7.08308L15.1123 15.1378L7.05751 14.1662L11.9159 20.6611L0 23.8319L11.9159 27.0282L7.05751 33.5232L15.1123 32.5515L14.1406 40.6062L20.61 35.7478L23.7807 47.6893L26.9515 35.7478L33.4465 40.6318L32.4748 32.5515L40.5295 33.5232L35.6711 27.0282H35.62ZM43.061 23.8575H36.0291C36.0291 23.2182 35.978 22.5533 35.8757 21.9396L43.061 23.8575ZM4.4493 23.8575H11.4812C11.4812 24.4967 11.5324 25.1616 11.6347 25.7753L4.47487 23.8575H4.4493ZM32.0656 9.46115L29.8921 13.1945C29.304 12.8621 28.7926 12.6063 28.1789 12.3762L32.0656 9.46115ZM29.7387 14.831C29.5597 15.1378 29.1761 15.2401 28.8693 15.0611C28.5625 14.8821 28.4602 14.4986 28.6392 14.1662C28.8182 13.8593 29.2017 13.757 29.5341 13.936C29.841 14.115 29.9433 14.4986 29.7643 14.831M23.7552 4.52601V11.5579C22.6812 11.5579 21.8374 11.7114 21.8374 11.7114L23.7552 4.52601ZM18.0529 13.9616C18.3598 13.7826 18.7689 13.8849 18.9479 14.1917C19.1269 14.4986 19.0246 14.9077 18.7177 15.0867C18.4109 15.2657 18.0018 15.1634 17.8228 14.8566C17.6438 14.5497 17.7461 14.1406 18.0529 13.9616ZM17.6182 13.1945C17.0301 13.5269 16.5698 13.8593 16.0584 14.2684L15.4703 9.46115L17.6438 13.1945H17.6182ZM13.6036 23.8063C13.6036 24.1643 13.3223 24.4456 12.9643 24.4456C12.6063 24.4456 12.3251 24.1643 12.3251 23.8063C12.3251 23.4483 12.6063 23.167 12.9643 23.167C13.3223 23.167 13.6036 23.4483 13.6036 23.8063ZM9.38444 15.547L13.1178 17.7205C12.7853 18.3086 12.5296 18.82 12.2995 19.4337L9.38444 15.547ZM9.38444 32.1679L13.1178 29.9944C13.4502 30.5825 13.7826 31.0428 14.1917 31.5798L9.38444 32.1679ZM15.4447 38.2537L17.6182 34.4949C18.2063 34.8273 18.7177 35.083 19.3314 35.3131L15.4447 38.2537ZM17.7972 32.8839C17.9762 32.577 18.3598 32.4748 18.6922 32.6538C18.999 32.8328 19.1013 33.2419 18.9223 33.5487C18.7433 33.8556 18.3598 33.9579 18.0529 33.7789C17.7461 33.5999 17.6438 33.1907 17.8228 32.8839M23.7552 43.1889V36.157C24.3944 36.157 25.0337 36.1058 25.673 36.0035L23.7552 43.1889ZM29.483 33.7789C29.1762 33.9579 28.767 33.8556 28.588 33.5487C28.409 33.2419 28.5113 32.8328 28.8182 32.6538C29.125 32.4748 29.5341 32.577 29.7131 32.8839C29.8921 33.1907 29.7898 33.5999 29.483 33.7789ZM29.8921 34.5204C30.4803 34.188 30.9405 33.8556 31.4519 33.4465L32.0401 38.2793L29.8666 34.5204H29.8921ZM23.7552 33.2163C18.5899 33.2163 14.4219 29.0227 14.4219 23.8575C14.4219 18.6922 18.6155 14.4986 23.7552 14.4986C28.8949 14.4986 33.0885 18.6922 33.0885 23.8575C33.0885 29.0227 28.8949 33.2163 23.7552 33.2163ZM38.1259 15.547L34.3926 17.7205C34.0602 17.1324 33.7277 16.6721 33.3186 16.1351L38.1259 15.547ZM33.9067 23.8575C33.9067 23.4995 34.188 23.2182 34.546 23.2182C34.904 23.2182 35.1853 23.4995 35.1853 23.8575C35.1853 24.2154 34.904 24.4967 34.546 24.4967C34.188 24.4967 33.9067 24.2154 33.9067 23.8575ZM35.2108 28.2812L38.1259 32.1679L34.3926 29.9944C34.725 29.4063 34.9807 28.8949 35.2108 28.2812ZM18.5643 14.8566C18.7689 14.7543 18.82 14.4986 18.7177 14.294C18.6155 14.0894 18.3598 14.0383 18.1552 14.1406C17.9506 14.2429 17.8995 14.4986 18.0018 14.7031C18.104 14.9077 18.3598 14.9589 18.5643 14.8566ZM12.5552 23.8063C12.5552 24.0364 12.7342 24.2154 12.9643 24.2154C13.1945 24.2154 13.3735 24.0364 13.3735 23.8063C13.3735 23.5762 13.1945 23.3972 12.9643 23.3972C12.7342 23.3972 12.5552 23.5762 12.5552 23.8063ZM28.9716 32.8583C28.767 32.9606 28.7159 33.2163 28.8182 33.4209C28.9204 33.6255 29.1761 33.6766 29.3807 33.5743C29.5853 33.472 29.6364 33.2163 29.5341 33.0118C29.4319 32.8072 29.1762 32.7561 28.9716 32.8583ZM34.9551 23.8575C34.9551 23.6273 34.7761 23.4483 34.546 23.4483C34.3159 23.4483 34.1369 23.6273 34.1369 23.8575C34.1369 24.0876 34.3159 24.2666 34.546 24.2666C34.7761 24.2666 34.9551 24.0876 34.9551 23.8575ZM29.3807 14.1662C29.1761 14.0639 28.946 14.115 28.8182 14.3196C28.7159 14.5241 28.767 14.7543 28.9716 14.8821C29.1762 14.9844 29.4063 14.9333 29.5341 14.7287C29.6364 14.5242 29.5853 14.294 29.3807 14.1662Z" fill="white"/>
<path id="Vector_5" d="M20.1753 29.0483C20.1753 29.2273 20.3031 29.3807 20.4565 29.4574C20.7378 29.5597 21.0447 29.5597 21.3259 29.4574C21.5049 29.3807 21.6072 29.2273 21.6072 29.0483C21.6072 28.8693 21.5049 28.7159 21.3515 28.6392C21.2237 28.588 21.0958 28.5369 20.9679 28.5113C20.789 28.4602 20.61 28.4346 20.431 28.409C20.3287 28.409 20.252 28.3835 20.1497 28.3579C19.6383 28.2812 19.1524 28.0766 18.7689 27.7186C18.6666 27.6163 18.5899 27.4885 18.5387 27.3606C18.1807 26.5679 18.5387 25.6218 19.3314 25.2638C20.3031 24.8291 21.4026 24.8291 22.3999 25.2383C22.988 25.4428 23.3716 26.0054 23.3972 26.6191H21.7095C21.6584 26.3634 21.4538 26.1844 21.1981 26.1588C20.9935 26.1077 20.7634 26.1332 20.5588 26.2355C20.3287 26.3378 20.2264 26.5935 20.3031 26.8236C20.431 27.0282 20.6355 27.1816 20.8912 27.2328C21.3515 27.3095 21.8373 27.4118 22.2976 27.5652C22.5022 27.5908 22.6812 27.693 22.8346 27.7953C22.988 27.9232 23.1159 28.051 23.2182 28.23C23.6784 28.9716 23.4227 29.9433 22.6812 30.378C21.7862 30.8382 20.7378 30.9149 19.7661 30.6081C19.0246 30.4802 18.5132 29.841 18.5132 29.0994H20.1753V29.0483ZM29.0227 27.2583C29.0227 26.5168 28.6136 25.8264 27.9743 25.4173C27.0538 24.7524 25.8008 24.8291 24.957 25.5707C24.4456 26.0054 24.1387 26.6446 24.1131 27.3351C24.0109 27.9999 24.1131 28.6903 24.3433 29.3296C24.6246 29.9177 25.1104 30.378 25.7497 30.5825C26.3634 30.8127 27.0282 30.7615 27.5908 30.4802C28.3834 30.0967 28.946 29.3296 29.0227 28.4346H27.4629C27.3606 28.767 27.1816 29.0227 26.9771 29.1506C26.4912 29.483 25.9031 29.1506 25.6729 28.4346C25.4428 27.693 25.673 26.8492 26.1588 26.5168C26.6446 26.1844 27.2328 26.5168 27.4629 27.2328H29.0227V27.2583ZM26.7725 23.4227V19.8428C26.7213 19.357 26.2866 18.999 25.8008 19.0502C25.3661 19.1013 25.0081 19.4593 25.0081 19.894V23.9342C25.5707 23.704 26.1844 23.525 26.7725 23.4483M22.5278 23.883V19.8684C22.5278 19.3826 22.1186 18.9734 21.6072 18.999C21.1725 18.999 20.8145 19.3059 20.7378 19.7406V23.4483C21.3515 23.525 21.9396 23.6784 22.5022 23.883M31.2985 24.4711C30.5825 24.8803 29.7387 24.9058 28.9971 24.599C27.872 24.1387 26.6191 24.1387 25.494 24.599C24.957 24.8291 24.3688 24.9314 23.7807 24.9314C23.1926 24.9314 22.6045 24.8291 22.0675 24.599C20.9424 24.1387 19.6894 24.1387 18.5643 24.599C17.8228 24.9314 16.9789 24.8803 16.2629 24.4711L16.6721 23.7807C17.1579 24.062 17.746 24.0876 18.2575 23.8574V17.1579H20.7634V17.7972C20.8401 17.7205 20.9424 17.6182 21.0191 17.5415C22.1186 16.6209 23.7552 16.7999 24.6757 17.8995C25.1615 17.3369 25.8264 16.9789 26.5679 16.9534C28.0255 16.8766 29.2528 18.0018 29.3296 19.4593V23.8319C29.841 24.062 30.4291 24.0364 30.9149 23.7552L31.3241 24.4456L31.2985 24.4711Z" fill="white"/>
<path id="Vector_6" d="M56.7158 42.1916C56.7158 42.3706 56.7925 42.5752 56.7925 42.6775C56.7925 42.7798 56.7414 42.9076 56.6391 42.9076C56.5368 42.9076 56.409 42.6775 56.3834 42.6008C55.7697 41.5524 54.977 40.9898 54.1332 40.9898C52.9313 40.9898 52.0364 41.6802 52.0364 43.7514C52.0364 45.8227 52.9825 46.6154 54.261 46.6154C55.5396 46.6154 55.8208 46.2062 56.3067 45.6948C56.409 45.5925 56.5624 45.388 56.7158 45.388C56.8692 45.388 56.8181 45.4391 56.8181 45.5158C56.8181 45.7971 55.7953 47.3569 53.7752 47.3569C51.7551 47.3569 50.4766 46.2062 50.4766 44.1606C50.4766 42.1149 52.2665 40.5295 53.903 40.5295C55.5396 40.5295 55.7697 41.041 56.0254 41.041C56.2811 41.041 56.1788 40.7341 56.4345 40.7341C56.6902 40.7341 56.5368 40.7852 56.5624 40.8364L56.7158 42.1405V42.1916Z" fill="white"/>
<path id="Vector_7" d="M65.0518 41.8336C65.0518 41.2711 64.7194 41.0921 64.3358 41.0409C64.208 41.0409 64.1313 40.9642 64.1313 40.8108C64.1313 40.6574 64.1569 40.6574 64.387 40.6574C64.6171 40.6574 64.8728 40.7341 65.5632 40.7341C66.2537 40.7341 66.7906 40.6574 67.1998 40.6574C68.4783 40.6574 69.808 40.8875 69.808 42.4729C69.808 44.0583 69.4756 43.4446 69.092 43.6747C68.8874 43.777 68.6317 43.8281 68.6317 43.9304C68.6317 44.0838 69.7057 45.9761 70.166 46.5131C70.2683 46.6153 70.345 46.6665 70.4217 46.6665C70.4984 46.6665 70.6262 46.6409 70.7285 46.6409C70.8308 46.6409 70.8819 46.7176 70.8819 46.8199C70.8819 47.229 69.7568 47.2802 69.45 47.2802C69.1431 47.2802 68.8363 47.0756 68.6317 46.7176L67.5066 44.672C67.3532 44.3651 67.1998 44.135 66.8418 44.135C66.4838 44.135 66.5349 44.1861 66.5349 44.314V45.9249C66.5349 46.7176 66.8673 46.8711 67.2509 46.8966C67.3788 46.8966 67.4555 46.9733 67.4555 47.1268C67.4555 47.2802 67.3276 47.2802 66.8929 47.2802C66.4582 47.2802 66.1258 47.2035 65.7422 47.2035C65.3587 47.2035 64.9751 47.2802 64.5916 47.2802C64.208 47.2802 64.3103 47.2802 64.3103 47.1268C64.3103 46.9733 64.4637 46.9222 64.566 46.8966C64.9495 46.7943 65.0518 46.4108 65.0518 46.1039V41.8081V41.8336ZM66.5094 43.3934C66.5094 43.4957 66.5094 43.7259 67.1231 43.7259C67.7367 43.7259 68.3249 43.3167 68.3249 42.3706C68.3249 41.4245 67.9157 41.0154 67.0975 41.0154C66.2792 41.0154 66.5094 41.1688 66.5094 41.5012V43.3934Z" fill="white"/>
<path id="Vector_8" d="M78.681 41.8336C78.681 41.2455 78.3486 41.0409 77.965 41.0409C77.5815 41.0409 77.7605 40.9642 77.7605 40.8364C77.7605 40.7085 77.8372 40.6574 78.323 40.6574C78.8089 40.6574 79.0901 40.7341 79.4737 40.7341C79.8573 40.7341 80.2408 40.6574 80.6244 40.6574C81.0079 40.6574 80.9057 40.7085 80.9057 40.8108C80.9057 40.9131 80.7778 40.9642 80.6244 41.0409C80.3175 41.1944 80.1641 41.5012 80.1641 41.8336V44.7998C80.1641 45.9249 80.9057 46.7176 82.0819 46.7176C83.7951 46.7176 84.2043 45.3624 84.2043 44.2884V41.8592C84.2043 41.3734 83.9486 41.0665 83.4372 41.0409C83.2837 41.0409 83.1303 40.9642 83.1303 40.8108C83.1303 40.6574 83.2582 40.6574 83.4883 40.6574C83.7184 40.6574 84.0509 40.7085 84.3577 40.7085C84.6646 40.7085 84.9203 40.6574 85.2271 40.6574C85.534 40.6574 85.4572 40.7085 85.4572 40.8108C85.4572 40.9131 85.2782 40.9642 85.1248 41.0409C84.8435 41.1432 84.7668 41.3222 84.7668 42.166V44.2117C84.7668 46.3341 83.6673 47.408 81.4938 47.408C79.3203 47.408 78.7322 46.6665 78.7322 44.851V41.8336H78.681Z" fill="white"/>
<path id="Vector_9" d="M95.0974 46.1295C95.0974 46.7176 95.6344 46.8966 95.8389 46.9222C95.9668 46.9222 96.0435 46.9989 96.0435 47.1523C96.0435 47.3058 95.7622 47.3058 95.4809 47.3058C95.1997 47.3058 94.7905 47.229 94.4325 47.229C94.0745 47.229 93.6654 47.3058 93.2819 47.3058C92.8983 47.3058 92.9494 47.3058 92.9494 47.1523C92.9494 46.9989 93.1029 46.9478 93.2051 46.9222C93.5887 46.8199 93.6398 46.4364 93.6398 46.1295V41.8336C93.6398 41.2455 93.3074 41.0665 92.9239 41.0409C92.796 41.0409 92.7193 40.9642 92.7193 40.8108C92.7193 40.6574 93.0006 40.6574 93.2819 40.6574C93.5631 40.6574 94.049 40.7341 94.4325 40.7341C94.8161 40.7341 95.1997 40.6574 95.5832 40.6574C95.9668 40.6574 95.8645 40.6574 95.8645 40.8108C95.8645 40.9642 95.6088 41.0154 95.5065 41.0409C95.1229 41.1432 95.1229 41.5268 95.1229 41.8336V46.1295H95.0974Z" fill="white"/>
<path id="Vector_10" d="M103.51 45.5669C103.51 45.4902 103.433 45.3368 103.433 45.2601C103.433 45.1834 103.485 45.1067 103.638 45.1067C103.791 45.1067 103.868 45.3624 103.945 45.5158C104.303 46.2574 104.993 46.9478 105.888 46.9478C106.783 46.9478 107.09 46.5386 107.09 45.8482C107.09 44.2884 103.536 45.0555 103.536 42.4473C103.536 39.8391 104.328 40.5807 105.479 40.5807C106.63 40.5807 106.783 40.9642 107.09 40.9642C107.397 40.9642 107.397 40.8364 107.499 40.8364C107.627 40.8364 107.653 40.8875 107.653 41.0154C107.653 41.5523 107.78 42.4217 107.78 42.524C107.78 42.6263 107.729 42.7286 107.601 42.7286C107.474 42.7286 107.397 42.5752 107.32 42.345C107.09 41.6546 106.297 41.0154 105.556 41.0154C104.814 41.0154 104.456 41.3478 104.456 41.8848C104.456 43.4957 108.011 42.6519 108.011 45.2857C108.011 47.9194 107.295 47.408 105.863 47.408C104.431 47.408 104.712 47.2035 104.124 47.1012C104.022 47.1012 103.868 47.0756 103.843 46.9478L103.51 45.6181V45.5669Z" fill="white"/>
<path id="Vector_11" d="M116.27 42.3195C116.27 41.8592 116.219 41.1432 115.81 41.0921C115.503 41.0409 115.324 40.9642 115.324 40.8108C115.324 40.6574 115.477 40.6574 115.682 40.6574C116.423 40.7597 117.165 40.7341 117.881 40.7341C118.622 40.7341 119.364 40.6574 120.08 40.6574C120.796 40.6574 120.489 40.6574 120.489 40.8619C120.489 41.0665 120.438 41.2711 120.438 41.5012C120.438 41.7313 120.489 41.9103 120.489 42.1405C120.489 42.3706 120.463 42.3195 120.31 42.3195C120.157 42.3195 120.131 42.1405 120.131 42.0638C120.054 41.4501 119.799 41.2199 118.674 41.2199H118.06C117.804 41.2199 117.727 41.2966 117.727 41.6802V43.3423C117.727 43.4957 117.881 43.5469 118.264 43.5469C118.827 43.5469 119.236 43.3934 119.39 42.9843C119.492 42.7286 119.543 42.6775 119.62 42.6775C119.773 42.6775 119.773 42.8053 119.773 42.9332C119.773 43.2144 119.722 43.4957 119.722 43.8026C119.722 44.1094 119.773 44.3651 119.773 44.672C119.773 44.9788 119.773 44.9277 119.594 44.9277C119.415 44.9277 119.441 44.6464 119.338 44.4418C119.108 44.0583 118.827 43.9816 118.264 43.9816C117.702 43.9816 117.727 44.1094 117.727 44.3396V45.9761C117.727 46.6921 117.855 46.7943 118.367 46.7943C119.364 46.7943 119.927 46.4875 120.259 46.1806C120.591 45.8738 120.668 45.5414 120.821 45.5414C120.975 45.5414 120.975 45.6181 120.975 45.7204C120.975 45.8994 120.898 46.2829 120.821 46.4619C120.694 46.8455 120.259 47.3058 119.824 47.3058C119.185 47.3058 118.546 47.229 117.906 47.229C117.267 47.229 116.628 47.3058 115.989 47.3058C115.349 47.3058 115.554 47.3058 115.554 47.1523C115.554 46.9989 115.733 46.9222 115.912 46.8455C116.219 46.6921 116.295 46.4619 116.295 45.9249V42.3195H116.27Z" fill="white"/>
<path id="Vector_12" d="M128.339 45.5669C128.339 45.4902 128.263 45.3368 128.263 45.2601C128.263 45.1834 128.314 45.1067 128.467 45.1067C128.621 45.1067 128.697 45.3624 128.774 45.5158C129.132 46.2574 129.822 46.9478 130.717 46.9478C131.612 46.9478 131.919 46.5386 131.919 45.8482C131.919 44.2884 128.365 45.0555 128.365 42.4473C128.365 39.8391 129.158 40.5807 130.308 40.5807C131.459 40.5807 131.612 40.9642 131.919 40.9642C132.226 40.9642 132.226 40.8364 132.328 40.8364C132.456 40.8364 132.482 40.8875 132.482 41.0154C132.482 41.5523 132.61 42.4217 132.61 42.524C132.61 42.6263 132.558 42.7286 132.431 42.7286C132.303 42.7286 132.226 42.5752 132.149 42.345C131.919 41.6546 131.126 41.0154 130.385 41.0154C129.643 41.0154 129.285 41.3478 129.285 41.8848C129.285 43.4957 132.84 42.6519 132.84 45.2857C132.84 47.9194 132.124 47.408 130.692 47.408C129.26 47.408 129.541 47.2035 128.953 47.1012C128.851 47.1012 128.697 47.0756 128.672 46.9478L128.339 45.6181V45.5669Z" fill="white"/>
</g>
</svg>
